<svg width="18" height="18" viewBox="0 0 18 18" fill="none" xmlns="http://www.w3.org/2000/svg">
<mask id="mask0_1_348" style="mask-type:luminance" maskUnits="userSpaceOnUse" x="0" y="0" width="18" height="18">
<rect width="18" height="18" fill="white"/>
</mask>
<g mask="url(#mask0_1_348)">
<path d="M11.2071 3.04289L10.5 3.75L10.5 3.75L11.2071 3.04289ZM9.79289 3.04289L9.08579 2.33579V2.33579L9.79289 3.04289ZM16.4571 8.29289L15.75 9V9L16.4571 8.29289ZM16.4571 9.70711L15.75 9L15.75 9L16.4571 9.70711ZM15.0429 9.70711L15.75 9L15.75 9L15.0429 9.70711ZM9.79289 4.45711L10.5 3.75V3.75L9.79289 4.45711ZM16.4571 9.70711L15.75 9L16.4571 9.70711ZM16.4571 8.29289L15.75 9L15.75 9L16.4571 8.29289ZM11.2071 14.9571L10.5 14.25L10.5 14.25L11.2071 14.9571ZM9.79289 14.9571L10.5 14.25L9.79289 14.9571ZM9.79289 13.5429L10.5 14.25V14.25L9.79289 13.5429ZM15.0429 8.29289L15.75 9V9L15.0429 8.29289ZM2.25 8L2.25 7H2.25V8ZM1.25 9H0.25H1.25ZM15.75 8V9V8ZM15.75 10V11V10ZM2.25 10L2.25 9H2.25V10ZM11.9142 2.33579C11.1332 1.55474 9.86684 1.55474 9.08579 2.33579L10.5 3.75L10.5 3.75L11.9142 2.33579ZM17.1642 7.58579L11.9142 2.33579L10.5 3.75L15.75 9L17.1642 7.58579ZM17.1642 10.4142C17.9453 9.63317 17.9453 8.36684 17.1642 7.58579L15.75 9L15.75 9L17.1642 10.4142ZM14.3358 10.4142C15.1168 11.1953 16.3832 11.1953 17.1642 10.4142L15.75 9H15.75L14.3358 10.4142ZM9.08579 5.16421L14.3358 10.4142L15.75 9L10.5 3.75L9.08579 5.16421ZM9.08579 2.33579C8.30474 3.11683 8.30474 4.38317 9.08579 5.16421L10.5 3.75V3.75L9.08579 2.33579ZM17.1642 10.4142C17.9453 9.63317 17.9453 8.36684 17.1642 7.58579L15.75 9V9L17.1642 10.4142ZM11.9142 15.6642L17.1642 10.4142L15.75 9L10.5 14.25L11.9142 15.6642ZM9.08578 15.6642C9.86683 16.4453 11.1332 16.4453 11.9142 15.6642L10.5 14.25L10.5 14.25L9.08578 15.6642ZM9.08579 12.8358C8.30474 13.6168 8.30474 14.8832 9.08579 15.6642L10.5 14.25V14.25L9.08579 12.8358ZM14.3358 7.58579L9.08579 12.8358L10.5 14.25L15.75 9L14.3358 7.58579ZM17.1642 7.58579C16.3832 6.80474 15.1168 6.80474 14.3358 7.58579L15.75 9L15.75 9L17.1642 7.58579ZM2.25 7C1.14543 7 0.25 7.89543 0.25 9H2.25V7ZM15.75 7L2.25 7L2.25 9L15.75 9V7ZM17.75 9C17.75 7.89543 16.8546 7 15.75 7V9H17.75ZM15.75 11C16.8546 11 17.75 10.1046 17.75 9H15.75V11ZM2.25 11L15.75 11V9L2.25 9L2.25 11ZM0.25 9C0.25 10.1046 1.14543 11 2.25 11V9H0.25Z" fill="#F9FAFB"/>
</g>
</svg>
